<svg id="Warstwa_1" data-name="Warstwa 1" xmlns="http://www.w3.org/2000/svg" viewBox="0 0 480 432.32"><defs><style>.cls-1,.cls-2{fill:none;}.cls-2{stroke:#fff;stroke-linecap:round;stroke-linejoin:round;stroke-width:32px;}.cls-3{fill:red;}.cls-4{fill:#fff;}</style></defs><path class="cls-1" d="M0,0" transform="translate(-16 -32.02)"/><path class="cls-2" d="M266.89,52c-5-5.28-16.69-5.34-21.78,0L38.19,250.07A20.11,20.11,0,0,0,32,264.57V431.66a16.68,16.68,0,0,0,16.68,16.68H463.09A16.91,16.91,0,0,0,480,431.43V264.94a20.91,20.91,0,0,0-6.46-15.12Z" transform="translate(-16 -32.02)"/><path class="cls-3" d="M286.26,288.58l1-80.94H224.73l-1,80.94a59.28,59.28,0,1,0,62.53,0Z" transform="translate(-16 -32.02)"/><path class="cls-4" d="M256,414.21a75.28,75.28,0,0,1-47.27-133.86V163.44a47.27,47.27,0,1,1,94.54,0V280.35A75.28,75.28,0,0,1,256,414.21Zm0-266a15.29,15.29,0,0,0-15.27,15.27V288.58a16,16,0,0,1-7.54,13.59,43.27,43.27,0,1,0,45.62,0,16,16,0,0,1-7.54-13.59V163.44A15.29,15.29,0,0,0,256,148.17Z" transform="translate(-16 -32.02)"/></svg>