<svg id="Warstwa_1" data-name="Warstwa 1" xmlns="http://www.w3.org/2000/svg" viewBox="0 0 480 432.32"><defs><style>.cls-1,.cls-2{fill:none;}.cls-2{stroke:#fff;stroke-linecap:round;stroke-linejoin:round;stroke-width:32px;}.cls-3{fill:#00dbff;}</style></defs><path class="cls-1" d="M0,0" transform="translate(-16 -32.02)"/><path class="cls-2" d="M266.89,52c-5-5.28-16.69-5.34-21.78,0L38.19,250.07A20.11,20.11,0,0,0,32,264.57V431.66a16.68,16.68,0,0,0,16.68,16.68H463.09A16.91,16.91,0,0,0,480,431.43V264.94a20.91,20.91,0,0,0-6.46-15.12Z" transform="translate(-16 -32.02)"/><path class="cls-3" d="M213.07,350.37a42.94,42.94,0,1,1-85.87,0c0-23.71,40.89-119.81,42.93-94.86C173.56,297.5,213.07,326.66,213.07,350.37Z" transform="translate(-16 -32.02)"/><path class="cls-3" d="M384.8,354.46a42.94,42.94,0,0,1-85.87,0c0-23.72,40.9-119.82,42.94-94.86C345.3,301.59,384.8,330.74,384.8,354.46Z" transform="translate(-16 -32.02)"/><path class="cls-3" d="M298.93,218.73a42.93,42.93,0,0,1-85.86,0C213.07,195,254,98.91,256,123.87,259.43,165.86,298.93,195,298.93,218.73Z" transform="translate(-16 -32.02)"/></svg>