<?xml version="1.0" encoding="utf-8"?>
<!-- Generator: Adobe Illustrator 25.2.3, SVG Export Plug-In . SVG Version: 6.00 Build 0)  -->
<svg version="1.1" id="Warstwa_1" xmlns="http://www.w3.org/2000/svg" xmlns:xlink="http://www.w3.org/1999/xlink" x="0px" y="0px"
	 viewBox="0 0 480 400.3" style="enable-background:new 0 0 480 400.3;" xml:space="preserve">
<style type="text/css">
	.st0{fill:none;}
	.st1{fill:#45454C;}
	.st2{fill:#00DBFF;}
</style>
<path class="st0" d="M-16-48"/>
<path class="st1" d="M250.9,4c-5-5.3-16.7-5.3-21.8,0L22.2,202.1c-4,3.8-6.2,9-6.2,14.5v167.1c0,9.2,7.5,16.7,16.7,16.7h414.4
	c9.3,0,16.9-7.6,16.9-16.9l0,0V216.9c0-5.7-2.3-11.2-6.5-15.1L250.9,4z"/>
<path class="st2" d="M197.1,302.4c0.4,23.7-18.6,43.2-42.3,43.6c-23.7,0.4-43.2-18.6-43.6-42.3c0-0.4,0-0.9,0-1.3
	c0-23.7,40.9-119.8,42.9-94.9C157.6,249.5,197.1,278.6,197.1,302.4z"/>
<path class="st2" d="M368.8,306.4c-0.4,23.7-19.9,42.6-43.6,42.3c-23.2-0.4-41.9-19.1-42.3-42.3c0-23.7,40.9-119.8,42.9-94.9
	C329.3,253.6,368.8,282.7,368.8,306.4z"/>
<path class="st2" d="M282.9,170.7c0,23.7-19.2,42.9-42.9,42.9c-23.7,0-42.9-19.2-42.9-42.9c0-23.7,40.9-119.8,42.9-94.9
	C243.4,117.8,282.9,147,282.9,170.7z"/>
</svg>
