<?xml version="1.0" encoding="utf-8"?>
<!-- Generator: Adobe Illustrator 25.2.3, SVG Export Plug-In . SVG Version: 6.00 Build 0)  -->
<svg version="1.1" id="Warstwa_1" xmlns="http://www.w3.org/2000/svg" xmlns:xlink="http://www.w3.org/1999/xlink" x="0px" y="0px"
	 viewBox="0 0 480 400.4" style="enable-background:new 0 0 480 400.4;" xml:space="preserve">
<style type="text/css">
	.st0{fill:none;}
	.st1{fill:#FF0000;}
	.st2{fill:#45454C;}
</style>
<path class="st0" d="M-16-48"/>
<path class="st1" d="M262.8,327.8c20.3-12.6,26.6-39.3,14-59.6c-3.5-5.7-8.3-10.4-14-14c-4.7-2.9-7.5-8.1-7.5-13.6v-80.9h-30.6v80.9
	c0,5.5-2.8,10.7-7.5,13.6c-20.3,12.6-26.6,39.3-14,59.6C215.8,334.1,242.5,340.4,262.8,327.8z"/>
<g>
	<path class="st2" d="M457.5,201.8L250.9,4c-5-5.3-16.7-5.3-21.8,0L22.2,202.1c-4,3.8-6.2,9-6.2,14.5v167c0,9.2,7.5,16.8,16.8,16.8
		H447c9.3,0,17-7.6,17-17V216.9C464,211.2,461.7,205.7,457.5,201.8z M298.6,339c-14.3,17.7-35.8,28-58.6,28
		c-41.6,0-75.3-33.7-75.3-75.3c0-22.8,10.3-44.3,28-58.6c0,0,0,0,0-0.1V116.2c0-25.7,20.5-46.7,46.1-47.3
		c26.7-0.6,48.5,21.4,48.5,48.2v116c0,0,0,0,0,0.1C319.7,259.3,324.7,306.7,298.6,339z"/>
</g>
</svg>
