<svg id="Warstwa_2" data-name="Warstwa 2" xmlns="http://www.w3.org/2000/svg" viewBox="0 0 255.45 416.74"><defs><style>.cls-1,.cls-2{fill:none;stroke-miterlimit:10;}.cls-1{stroke:#c93;stroke-width:10px;}.cls-2{stroke:#45454c;stroke-width:18px;}.cls-3{fill:#45454c;}</style></defs><path class="cls-1" d="M229,361.91" transform="translate(-128.28 -43.13)"/><path class="cls-1" d="M229,361.91V250.38A30.32,30.32,0,0,1,234.53,233l1.83-2.6a1.15,1.15,0,0,1,1.89,0l7.62,10.84a1.16,1.16,0,0,0,1.89,0l7.56-10.76a1.16,1.16,0,0,1,1.89,0l6.76,9.63a1.16,1.16,0,0,0,1.89,0l7.33-10.43a1.16,1.16,0,0,1,1.89,0l2.23,3.18A31.17,31.17,0,0,1,283,250.74V361.91" transform="translate(-128.28 -43.13)"/><path class="cls-2" d="M351.74,244.64a140.31,140.31,0,0,0,17.82-39s5.16-17.7,5.16-34.74a118.72,118.72,0,0,0-237.44,0,129.68,129.68,0,0,0,5.23,35c7.05,21.38,16.06,24.88,30.28,49.7a209.4,209.4,0,0,1,21.83,55.61,195.45,195.45,0,0,1,4.95,50.78h112c1.46-13.62,5.55-28.89,8.91-46.13A179.48,179.48,0,0,1,351.74,244.64Z" transform="translate(-128.28 -43.13)"/><rect class="cls-3" x="62.36" y="342.04" width="130.72" height="16.09" rx="8.04"/><rect class="cls-3" x="71.86" y="371.35" width="111.72" height="16.09" rx="8.04"/><rect class="cls-3" x="79.11" y="400.66" width="97.77" height="16.09" rx="8.04"/></svg>