<svg id="Warstwa_2" data-name="Warstwa 2" xmlns="http://www.w3.org/2000/svg" viewBox="0 0 490.21 338.68"><defs><style>.cls-1{fill:none;stroke:#3aafa9;stroke-miterlimit:10;stroke-width:12px;}</style></defs><path class="cls-1" d="M71.12,308.6" transform="translate(-10.89 -10.77)"/><path class="cls-1" d="M458.85,149.11v122a37.54,37.54,0,0,1-37.53,37.54H134.05" transform="translate(-10.89 -10.77)"/><path class="cls-1" d="M71.12,308.6H54.43a37.54,37.54,0,0,1-37.54-37.54V54.3A37.54,37.54,0,0,1,54.43,16.77H421.32A37.53,37.53,0,0,1,458.85,54.3V65" transform="translate(-10.89 -10.77)"/><rect class="cls-1" x="194.68" y="135.26" width="84.26" height="84.26" rx="13.02"/><rect class="cls-1" x="46.47" y="43.53" width="9.45" height="9.45" rx="0.3"/><rect class="cls-1" x="91.69" y="43.53" width="9.45" height="9.45" rx="0.3"/><rect class="cls-1" x="136.91" y="43.53" width="9.45" height="9.45" rx="0.3"/><rect class="cls-1" x="182.14" y="43.53" width="9.45" height="9.45" rx="0.3"/><rect class="cls-1" x="227.36" y="43.53" width="9.45" height="9.45" rx="0.3"/><rect class="cls-1" x="271.49" y="43.53" width="9.45" height="9.45" rx="0.3"/><rect class="cls-1" x="46.47" y="81.15" width="9.45" height="9.45" rx="0.3"/><rect class="cls-1" x="91.69" y="81.15" width="9.45" height="9.45" rx="0.3"/><rect class="cls-1" x="136.91" y="81.15" width="9.45" height="9.45" rx="0.3"/><rect class="cls-1" x="182.14" y="81.15" width="9.45" height="9.45" rx="0.3"/><rect class="cls-1" x="227.36" y="81.15" width="9.45" height="9.45" rx="0.3"/><path class="cls-1" d="M458.85,63.74h23.24a13,13,0,0,1,13,13V135a13,13,0,0,1-13,13H435.62a13,13,0,0,1-13-13V76.77a13,13,0,0,1,13-13h23.23" transform="translate(-10.89 -10.77)"/><rect class="cls-1" x="60.22" y="262.98" width="62.94" height="69.7" rx="13.02"/><rect class="cls-1" x="89.07" y="132.19" width="5.23" height="45.19" rx="2.62"/><rect class="cls-1" x="43.85" y="187.34" width="5.23" height="45.19" rx="2.62"/><rect class="cls-1" x="271.49" y="81.15" width="9.45" height="9.45" rx="0.3"/><rect class="cls-1" x="356.45" y="208.81" width="5.23" height="81.87" rx="2.62"/></svg>